<?xml version="1.0" encoding="UTF-8"?>
<svg id="Layer_1" xmlns="http://www.w3.org/2000/svg" xmlns:xlink="http://www.w3.org/1999/xlink" viewBox="0 0 600.24 479.8">
  <defs>
    <style>
      .cls-1 {
        fill: url(#linear-gradient-2);
      }

      .cls-2 {
        fill: url(#linear-gradient);
      }
    </style>
    <linearGradient id="linear-gradient" x1="255.73" y1="156.18" x2="255.73" y2="444.62" gradientUnits="userSpaceOnUse">
      <stop offset="0" stop-color="#88c541"/>
      <stop offset=".31" stop-color="#68993b"/>
      <stop offset=".6" stop-color="#507938"/>
      <stop offset=".84" stop-color="#416535"/>
      <stop offset="1" stop-color="#3c5e35"/>
    </linearGradient>
    <linearGradient id="linear-gradient-2" x1="348.6" y1="479.8" x2="348.6" y2="0" gradientUnits="userSpaceOnUse">
      <stop offset="0" stop-color="#88c540"/>
      <stop offset=".04" stop-color="#7ab23e"/>
      <stop offset=".11" stop-color="#66983b"/>
      <stop offset=".19" stop-color="#568238"/>
      <stop offset=".28" stop-color="#4a7137"/>
      <stop offset=".39" stop-color="#416535"/>
      <stop offset=".55" stop-color="#3c5e35"/>
      <stop offset="1" stop-color="#3b5d35"/>
    </linearGradient>
  </defs>
  <path class="cls-2" d="M265.53,252.3c-6.08,4.88-10.65,10.97-15.61,16.7-6.96,8.04-13.84,16.18-21.09,23.95-11.56,12.39-23.29,24.63-36.5,35.35-2.33,1.89-3.85,1.96-6.08.1-3.93-3.29-8.07-6.32-12.11-9.48-1.76-1.37-3.2-1.34-4.7.53-13.91,17.36-31.12,31.25-48.11,45.34-20.77,17.22-42.54,33.1-65.11,47.89-3.4,2.23-7.02,4.13-10.53,6.2-1.74,1.02-3.48.93-5.3.23-12.76-4.93-25.35-10.27-37.77-16.01-3.17-1.47-3.34-2.87-1.21-5.56,13.69-17.33,27.26-34.75,40.86-52.15,13.36-17.09,26.69-34.19,40.06-51.27,16.04-20.48,32.13-40.93,48.15-61.43,6.55-8.39,13.02-16.84,19.46-25.31,3.43-4.52,3.87-4.84,8.57-1.59,5.06,3.51,9.75,7.56,14.77,11.13,2.54,1.8,2.27,3.35.6,5.47-5.78,7.33-11.49,14.71-17.23,22.07-18.83,24.15-37.67,48.3-56.48,72.47-1.42,1.82-2.67,3.76-4.23,5.97,2-.26,2.64-1.53,3.52-2.39,18.03-17.67,35.9-35.53,53.11-54,19.52-20.95,38.67-42.26,56.66-64.56,3.21-3.98,6.33-8.05,9.48-12.08,3.05-3.9,3.36-3.93,7.64-1.12,6.48,4.26,13.08,8.33,19.41,12.79,3.16,2.22,5.22,1.79,7.73-.93,13.2-14.28,26.59-28.39,39.76-42.7,2.03-2.21,3.28-2.28,5.42-.33,9.42,8.58,18.93,17.06,28.47,25.51,15.33,13.6,30.65,27.21,46.11,40.66,2.6,2.26,2.91,3.9.55,6.4-6.85,7.26-13.65,14.59-20.34,22-2.25,2.49-4.21,2.86-7.11.92-6.33-4.25-12.83-8.24-19.33-12.23-3.78-2.32-4.55-2.06-6.58,2.04-6.53,13.21-13.52,26.16-21.05,38.82-14.19,23.86-29.63,46.91-45.25,69.84-.8,1.17-1.45,2.45-1.92,3.9,2.8-1.23,4.61-3.58,6.53-5.7,15.62-17.24,31.35-34.37,45.33-53.01,6.87-9.16,13.33-18.6,19.44-28.27,2.11-3.35,4.06-3.39,6.99-1.3,5.35,3.81,10.86,7.41,16.25,11.18,2.03,1.42,3.56,1.48,5.46-.43,12.8-12.86,25.06-26.21,36.99-39.89,6.91-7.92,13.86-15.8,20.91-23.6,3.16-3.5,3.9-3.42,7.01.38,10.65,13.02,21.23,26.1,31.87,39.13,5.24,6.41,10.63,12.7,15.81,19.15,1.58,1.97,2.89,1.93,4.54.34,1.7-1.65,3.48-3.22,5.1-4.94,2.06-2.18,3.72-1.88,5.48.4,3.69,4.79,7.65,9.37,11.19,14.26,6.47,8.95,12.65,18.1,19.11,27.07,1.65,2.29,1.48,4.16.24,6.5-8.48,16.03-20.05,29.61-33.67,41.37-35.34,30.5-77.07,48.74-121.09,62.58-31.74,9.98-64.23,16.22-97.19,20.21-31.55,3.82-63.25,4.43-94.93,3.19-30.3-1.19-60.19-5.78-89.45-13.98-1.7-.48-4.37-.33-4.67-2.23-.31-1.94,2.35-2.55,3.8-3.48,21.81-14.04,42.67-29.39,62.63-45.93,12.34-10.22,24.6-20.61,34.77-33.13,1.84-2.26,3.33-1.96,5.29-.47,3.46,2.62,7,5.13,10.44,7.78,2.28,1.75,4.09,1.6,6.18-.49,13.45-13.54,26.08-27.74,37.36-43.17,12.21-16.69,23.04-34.23,33.27-52.15.83-1.46,1.54-2.99,2.31-4.49ZM441.41,320.81c-.34-.27-.67-.54-1.01-.8-1.35,1.6-2.65,3.24-4.06,4.79-9.23,10.09-18.8,19.83-28.84,29.13-2.84,2.63-4.73,2.71-7.69.45-7-5.34-14.23-10.38-21.37-15.54-1.53-1.1-2.93-2.27-4.6.06-8.44,11.76-17.86,22.73-27.83,33.2-6.97,7.32-13.26,15.3-21.16,21.74-4.52,3.69-8.81,7.66-13.38,11.66.71.29.97.49,1.18.45.77-.15,1.53-.36,2.28-.59,12.94-3.87,24.24-10.79,34.62-19.21,8.78-7.12,17.15-14.76,24.35-23.52,2.56-3.11,4.6-3.63,8.07-.96,6.13,4.73,12.88,8.64,19.06,13.32,3.29,2.5,4.8,1.59,6.76-1.42,6.36-9.82,13.03-19.44,19.39-29.26,4.98-7.69,10.1-15.32,14.24-23.52Z"/>
  <path class="cls-1" d="M96.96,453.8c3.26.35,6.05.61,8.83.95,17.09,2.09,34.23,3.58,51.43,4.58,17.49,1.02,34.99,1.01,52.46.51,49.24-1.42,97.67-8.32,144.92-22.67,26.36-8.01,52.09-17.61,76.58-30.28,25.24-13.06,48.9-28.47,68.48-49.34,17.3-18.44,30.73-39.12,34.05-64.92,2.6-20.2-1.62-39.19-10.76-57.25-10.05-19.85-25.2-35.47-41.62-49.97-32.5-28.7-70.16-48.44-110.71-63.06-3.71-1.34-7.46-2.55-11.21-3.76-.95-.31-2.06-1.01-2.94-.02-.81.92-.2,2.01.11,2.99,3.86,11.88,7.74,23.74,11.59,35.62,2.72,8.37,5.42,16.75,8.07,25.15,1.33,4.21,1.27,8.58.97,12.91-.31,4.55-2.93,6.51-7.47,5.78-3.08-.5-5.62-2.19-8.08-3.95-8.43-6.03-14.4-14.08-19.08-23.23-3.35-6.55-7.03-12.94-10.45-19.45-1.07-2.02-2.54-3.19-4.74-3.76-4.71-1.2-9.41-2.46-14.06-3.87-4.9-1.48-7.57-5.11-7.79-10.22-.19-4.26,2.48-8.5,6.91-10.03,2.93-1.01,3.44-2.38,2.06-4.94-2.8-5.21-5.54-10.45-8.29-15.69-1.65-3.13-4.67-3.99-7.75-4.89-20.35-5.95-40.39-12.76-59.29-22.5-7.95-4.1-15.49-8.84-22.77-14.09-9.57-6.9-6.73-19.41,3.31-23.12,9.07-3.35,18.49-4.06,27.99-3.16,23.4,2.19,46.12,7.8,68.68,14.08,5.32,1.48,9.84,1.29,14.38-2.25,3.82-2.97,8.18-5.26,12.33-7.79,2.03-1.23,2.28-2.33.65-4.33-3.63-4.48-3.9-9.21-1.2-13.49,2.48-3.93,6.92-5.51,12.55-4.24,4.23.95,8.47,1.96,12.59,3.29,2.35.76,4.23.63,6.3-.71,7.18-4.63,14.47-9.08,21.67-13.68C404.39,3.43,413.94.41,424.27.03c3.43-.13,7.12.08,9.04,3.57,1.9,3.45.23,6.69-1.6,9.63-3.3,5.31-7.91,9.48-12.48,13.63-13.12,11.93-26.36,23.73-39.46,35.68-4.65,4.24-4.45,4.19,1.6,6.18,21.25,6.97,42.21,14.69,62.65,23.8,14.9,6.64,29.52,13.87,43.58,22.12,15.89,9.32,31.15,19.62,45.12,31.71,13.76,11.91,26.35,24.91,36.79,39.9,16.39,23.55,26.67,49.39,29.64,78.03,1.9,18.3,1.75,36.43-3.91,54.22-5.5,17.29-14.29,32.75-25.74,46.69-26.84,32.7-61.63,54.42-99.67,71.58-37.15,16.76-76.01,27.85-116.09,34.81-23.2,4.03-46.58,6.46-70.12,7.61-12.89.63-25.77.78-38.65.49-24.86-.55-49.59-2.74-74.14-6.81-24.18-4-48-9.42-71.24-17.24-.81-.27-1.81-.27-2.62-1.81Z"/>
</svg>